<svg xmlns="http://www.w3.org/2000/svg" version="1.1" xmlns:xlink="http://www.w3.org/1999/xlink" xmlns:svgjs="http://svgjs.com/svgjs" width="1440" height="2500" preserveAspectRatio="none" viewBox="0 0 1440 2500"><g mask="url(&quot;#SvgjsMask1086&quot;)" fill="none"><rect width="1440" height="2500" x="0" y="0" fill="rgba(255, 178, 0, 1)"></rect><path d="M0,743.449C138.735,727.26,266.801,673.482,383.333,596.478C498.684,520.254,583.448,415.262,665.289,303.827C766.795,165.616,905.842,38.979,918.381,-132.043C931.734,-314.166,855.021,-499.259,734.212,-636.198C613.87,-772.607,440.199,-873.211,258.424,-880.111C88.069,-886.577,-34.022,-720.954,-197.185,-671.552C-358.263,-622.781,-554.064,-698.997,-685.776,-594.228C-820.753,-486.861,-878.904,-299.256,-882.007,-126.813C-884.959,37.241,-779.343,175.865,-702.24,320.702C-629.913,456.569,-577.354,613.806,-445.486,693.19C-314.811,771.856,-151.499,761.127,0,743.449" fill="#cc8e00"></path><path d="M1440 3368.0860000000002C1635.81 3381.634 1834.675 3471.2380000000003 2016.203 3396.589 2208.43 3317.54 2400.376 3160.772 2440.202 2956.777 2480.0789999999997 2752.521 2279.727 2585.973 2212.943 2388.868 2161.566 2237.234 2169.331 2074.724 2093.558 1933.6889999999999 2002.608 1764.405 1911.344 1572.488 1734.249 1497.88 1553.097 1421.563 1333.933 1451.897 1157.9850000000001 1539.546 993.134 1621.667 914.968 1803.346 813.074 1956.7649999999999 724.03 2090.8360000000002 629.289 2220.955 600.279 2379.266 570.533 2541.597 595.155 2705.449 647.182 2862.068 703.988 3033.074 760.966 3223.301 912.859 3320.247 1064.658 3417.133 1260.347 3355.6549999999997 1440 3368.0860000000002" fill="#ffc133"></path></g><defs><mask id="SvgjsMask1086"><rect width="1440" height="2500" fill="#ffffff"></rect></mask></defs></svg>