<?xml version="1.0" standalone="no"?>
<svg xmlns:xlink="http://www.w3.org/1999/xlink" id="wave" style="transform:rotate(180deg); transition: 0.3s" viewBox="0 0 1440 410" version="1.1" xmlns="http://www.w3.org/2000/svg"><defs><linearGradient id="sw-gradient-0" x1="0" x2="0" y1="1" y2="0"><stop stop-color="rgba(0, 0, 0, 1)" offset="0%"/><stop stop-color="rgba(0, 0, 0, 1)" offset="100%"/></linearGradient></defs><path style="transform:translate(0, 0px); opacity:1" fill="url(#sw-gradient-0)" d="M0,123L48,102.5C96,82,192,41,288,41C384,41,480,82,576,129.8C672,178,768,232,864,225.5C960,219,1056,150,1152,102.5C1248,55,1344,27,1440,13.7C1536,0,1632,0,1728,47.8C1824,96,1920,191,2016,218.7C2112,246,2208,205,2304,170.8C2400,137,2496,109,2592,143.5C2688,178,2784,273,2880,307.5C2976,342,3072,314,3168,314.3C3264,314,3360,342,3456,341.7C3552,342,3648,314,3744,293.8C3840,273,3936,260,4032,259.7C4128,260,4224,273,4320,287C4416,301,4512,314,4608,293.8C4704,273,4800,219,4896,170.8C4992,123,5088,82,5184,54.7C5280,27,5376,14,5472,27.3C5568,41,5664,82,5760,102.5C5856,123,5952,123,6048,123C6144,123,6240,123,6336,123C6432,123,6528,123,6624,136.7C6720,150,6816,178,6864,191.3L6912,205L6912,410L6864,410C6816,410,6720,410,6624,410C6528,410,6432,410,6336,410C6240,410,6144,410,6048,410C5952,410,5856,410,5760,410C5664,410,5568,410,5472,410C5376,410,5280,410,5184,410C5088,410,4992,410,4896,410C4800,410,4704,410,4608,410C4512,410,4416,410,4320,410C4224,410,4128,410,4032,410C3936,410,3840,410,3744,410C3648,410,3552,410,3456,410C3360,410,3264,410,3168,410C3072,410,2976,410,2880,410C2784,410,2688,410,2592,410C2496,410,2400,410,2304,410C2208,410,2112,410,2016,410C1920,410,1824,410,1728,410C1632,410,1536,410,1440,410C1344,410,1248,410,1152,410C1056,410,960,410,864,410C768,410,672,410,576,410C480,410,384,410,288,410C192,410,96,410,48,410L0,410Z"/></svg>
