<?xml version="1.0" standalone="no"?>
<svg xmlns:xlink="http://www.w3.org/1999/xlink" id="wave" style="transform:rotate(180deg); transition: 0.3s" viewBox="0 0 1440 430" version="1.1" xmlns="http://www.w3.org/2000/svg"><defs><linearGradient id="sw-gradient-0" x1="0" x2="0" y1="1" y2="0"><stop stop-color="rgba(255, 178, 0, 1)" offset="0%"/><stop stop-color="rgba(255, 178, 0, 1)" offset="100%"/></linearGradient></defs><path style="transform:translate(0, 0px); opacity:1" fill="url(#sw-gradient-0)" d="M0,43L34.3,86C68.6,129,137,215,206,258C274.3,301,343,301,411,272.3C480,244,549,186,617,186.3C685.7,186,754,244,823,286.7C891.4,330,960,358,1029,351.2C1097.1,344,1166,301,1234,236.5C1302.9,172,1371,86,1440,71.7C1508.6,57,1577,115,1646,143.3C1714.3,172,1783,172,1851,200.7C1920,229,1989,287,2057,265.2C2125.7,244,2194,143,2263,107.5C2331.4,72,2400,100,2469,143.3C2537.1,186,2606,244,2674,229.3C2742.9,215,2811,129,2880,129C2948.6,129,3017,215,3086,215C3154.3,215,3223,129,3291,121.8C3360,115,3429,186,3497,179.2C3565.7,172,3634,86,3703,43C3771.4,0,3840,0,3909,43C3977.1,86,4046,172,4114,215C4182.9,258,4251,258,4320,229.3C4388.6,201,4457,143,4526,121.8C4594.3,100,4663,115,4731,114.7C4800,115,4869,100,4903,93.2L4937.1,86L4937.1,430L4902.9,430C4868.6,430,4800,430,4731,430C4662.9,430,4594,430,4526,430C4457.1,430,4389,430,4320,430C4251.4,430,4183,430,4114,430C4045.7,430,3977,430,3909,430C3840,430,3771,430,3703,430C3634.3,430,3566,430,3497,430C3428.6,430,3360,430,3291,430C3222.9,430,3154,430,3086,430C3017.1,430,2949,430,2880,430C2811.4,430,2743,430,2674,430C2605.7,430,2537,430,2469,430C2400,430,2331,430,2263,430C2194.3,430,2126,430,2057,430C1988.6,430,1920,430,1851,430C1782.9,430,1714,430,1646,430C1577.1,430,1509,430,1440,430C1371.4,430,1303,430,1234,430C1165.7,430,1097,430,1029,430C960,430,891,430,823,430C754.3,430,686,430,617,430C548.6,430,480,430,411,430C342.9,430,274,430,206,430C137.1,430,69,430,34,430L0,430Z"/></svg>
